<svg viewBox="0 0 24 24" fill="none" xmlns="http://www.w3.org/2000/svg">
<g clip-path="url(#clip0_0_3)">
<path d="M15.6924 23.1449C14.9386 23.1388 14.3636 22.9197 13.7398 22.5389C12.8452 22.0683 12.162 21.2777 11.6738 20.4061C10.8981 21.3685 9.86127 21.9525 8.70053 22.2824C8.2063 22.4259 7.34067 22.5715 5.90581 22.0517C3.83792 21.357 2.33162 19.2053 2.5028 17.0129C2.47149 16.1041 2.80284 15.2122 3.27252 14.4454C2.01956 13.7729 0.997858 12.644 0.606603 11.2595C0.368836 10.5016 0.378835 9.68517 0.466513 8.90605C0.78051 7.06658 2.16033 5.46701 3.93669 4.89166C4.64572 3.27586 6.19298 2.07094 7.94595 1.82563C9.10987 1.66355 10.3147 1.90721 11.3329 2.49876C12.8165 0.853348 15.4012 0.367075 17.3748 1.37784C18.8803 2.09678 19.9568 3.59674 20.2182 5.23238C21.6507 5.80626 22.8572 6.9766 23.3307 8.4623C23.6473 9.38216 23.6578 10.3954 23.4528 11.3398C23.0864 12.8136 22.0461 14.0683 20.6995 14.754C20.7027 15.0163 21.5649 16.9074 21.4207 18.3345C21.3892 20.1187 20.2575 21.8096 18.6881 22.6309C17.7723 23.1655 16.687 23.1554 15.6924 23.1449ZM11.4011 18.0091C12.6705 17.8677 13.5026 16.761 14.1489 15.7642C14.4545 15.3102 14.6879 14.802 14.9198 14.3187C15.2206 14.5943 15.4754 15.1136 15.951 15.2373C16.452 15.3933 17.0394 15.2666 17.3461 14.8115C17.9331 13.7167 17.6438 12.3956 17.3019 11.2611C17.0915 10.6094 16.8153 9.94095 16.2898 9.47906C16.4019 8.68852 15.9334 7.88564 15.2675 7.47185C14.7 7.92437 13.8365 7.92165 13.289 7.43757C12.2397 8.50775 11.2781 8.47222 10.3492 7.62407C10.1405 7.43345 9.74216 8.78756 8.34428 8.02049C7.54117 8.6934 6.91846 9.34072 6.36668 10.2727C5.83051 11.2776 5.26901 12.1699 5.22063 13.2611C5.19736 13.8988 5.69569 14.567 6.37092 14.5152C7.0458 14.5754 7.50518 13.9112 8.01618 13.6353C8.09239 14.5254 8.17824 15.4816 8.47902 16.3506C8.82426 17.475 10.0402 18.1896 11.1912 18.026C11.2726 18.0196 11.4011 18.009 11.4011 18.0091ZM12.06 14.6515C11.4426 14.2731 11.7397 13.4519 11.715 12.8554C11.7764 12.1356 11.8257 11.3788 12.1493 10.7231C12.4917 10.2556 13.3269 10.4359 13.3638 11.0358C13.3393 11.6391 13.0623 12.2398 13.0954 12.8652C13.0235 13.3875 13.1474 13.9742 12.9163 14.4515C12.7268 14.7156 12.3407 14.7924 12.06 14.6515ZM9.3636 14.3077C8.78206 13.9922 8.96681 13.1982 8.8756 12.6463C8.95122 12.0072 8.88828 11.1966 9.42332 10.7485C9.94655 10.3836 10.6588 11.0084 10.4113 11.5821C10.1474 12.3071 10.3204 13.0992 10.3259 13.8344C10.2261 14.268 9.76228 14.4982 9.3636 14.3077Z" fill="black"/>
</g>
<defs>
<clipPath id="clip0_0_3">
<rect width="24" height="24" fill="white"/>
</clipPath>
</defs>
</svg>